<svg width="198" height="213" viewBox="0 0 198 213" fill="none" xmlns="http://www.w3.org/2000/svg">
<path d="M0.214844 3.64274C0.214844 9.83541 13.2148 21.8565 19.8815 21.8565C23.2148 21.8565 29.8815 18.2137 34.8815 14.2067L43.8815 6.55694L52.2148 14.9352L60.2148 23.3136L53.5482 30.9633C45.2148 40.4344 39.5482 60.8338 42.2148 71.0335C44.8815 80.5046 57.8815 101.997 61.2148 101.997C62.5482 101.997 63.5482 97.9898 63.5482 93.6185C63.5482 84.8759 81.2148 54.6411 86.2148 54.6411C87.8815 54.6411 92.5482 58.6482 96.5482 63.3837L103.882 72.1263L92.5482 81.5974C86.2148 86.6973 78.8815 91.0686 75.8815 91.0686C66.5482 91.0686 69.5482 101.633 81.2148 109.282C86.8815 113.289 93.8815 116.568 96.5482 116.568C104.215 116.568 130.215 101.633 130.215 97.2612C130.215 95.0756 126.215 88.5186 121.215 83.0545L112.215 72.8548L120.882 63.3837C129.215 54.2769 129.882 53.9126 137.215 59.741C147.215 67.0265 156.548 67.0265 166.215 59.741C173.548 54.2769 174.548 54.2769 181.882 61.9266L189.548 69.9407L183.215 81.9617C176.548 94.347 178.215 108.918 186.882 114.746C189.548 116.568 187.882 120.939 181.548 127.86L172.215 138.424L162.882 128.589L153.548 118.753L160.548 110.739C165.882 104.547 167.215 99.8111 165.548 92.8899C162.882 81.9617 156.882 78.319 145.548 81.5974C133.882 84.8759 131.215 96.8969 139.548 108.918L145.882 118.753L138.215 129.317C128.215 143.16 127.548 164.288 137.215 178.859C145.215 191.244 150.215 192.337 150.215 182.137C150.215 178.13 155.215 168.659 161.548 161.009L172.882 147.531L181.215 155.909L189.548 164.652L181.882 177.037C177.215 184.323 174.882 192.337 175.882 196.708C177.882 205.451 189.882 215.65 194.548 212.372C196.215 211.279 194.882 208.729 191.548 206.543C177.882 198.529 177.548 193.43 188.882 178.494L197.882 167.202L187.548 155.545L176.882 143.524L187.215 132.232L197.548 120.939L189.882 109.647L181.882 97.9898L189.215 84.1474L196.548 70.3049L186.548 59.741L176.882 49.5413L187.548 37.5202L198.215 25.4992L186.882 12.7496C173.882 -1.82137 170.215 -2.91419 161.882 7.28549C158.548 11.2925 153.215 14.571 149.882 14.571C146.215 14.571 141.882 11.2925 139.548 7.28549C134.548 -1.09282 130.215 -2.18564 130.215 4.73557C130.215 11.6568 141.215 21.8565 148.215 21.8565C151.548 21.8565 158.548 18.2137 164.215 14.2067L174.215 6.19266L181.882 14.9352L189.882 23.6778L181.882 33.8775L173.548 44.0772L163.215 35.6989L153.215 27.3206L140.215 34.9703L127.215 42.9844L119.882 34.2418C112.882 26.2277 112.882 25.1349 118.215 16.7566C124.215 6.19266 125.215 2.23244e-06 120.215 2.23244e-06C118.548 2.23244e-06 116.882 2.18565 116.882 5.09984C116.882 7.64976 114.548 12.3853 111.548 14.9352C106.882 18.9423 104.882 18.578 98.2148 9.83541C93.8815 4.37129 88.5482 2.23244e-06 86.5482 2.23244e-06C84.2148 2.23244e-06 86.8815 5.46412 92.8815 12.0211L103.548 24.0421L94.2148 33.8775L84.8815 43.7129L77.2148 34.9703C69.8815 26.592 69.8815 25.8635 75.2148 16.7566C78.2148 11.6568 80.2148 5.46412 79.2148 2.9142C78.2148 2.23244e-06 75.8815 2.18565 73.5482 8.01404C68.2148 20.3994 66.8815 20.3994 56.8815 9.10686C47.5482 -1.82137 44.5482 -2.18564 33.5482 7.28549C22.8815 16.3923 14.5482 16.3923 10.2148 7.28549C6.54818 -0.364272 0.214844 -2.54992 0.214844 3.64274ZM73.5482 37.8845L81.2148 46.9914L70.5482 62.2909C64.8815 71.0335 60.2148 80.1403 60.2148 82.6903C60.2148 92.1614 53.8815 87.0615 50.2148 74.6762C46.2148 61.5623 47.8815 50.9984 56.2148 37.156C62.2148 26.9563 63.8815 26.9563 73.5482 37.8845ZM116.882 38.2488L124.882 47.7199L115.882 57.5553L106.882 67.3907L98.2148 57.9196L89.5482 48.4485L97.5482 38.9773C107.215 27.3206 107.548 27.3206 116.882 38.2488ZM161.882 41.5273C167.215 45.8986 167.548 47.3557 163.882 52.4555C158.215 59.741 146.882 60.1053 138.215 53.184C131.882 47.7199 131.882 47.7199 138.548 42.2558C146.882 35.3346 153.882 34.9703 161.882 41.5273ZM117.215 85.9687C125.215 95.0756 125.215 95.4399 118.548 100.54C108.215 108.918 97.2148 110.739 87.5482 106.004L78.8815 101.633L91.8815 89.2472C99.2148 82.326 106.215 76.8619 107.215 76.4976C108.215 76.4976 112.548 80.8689 117.215 85.9687ZM154.882 85.9687C161.548 88.8829 161.882 103.454 155.215 109.282C145.215 118.389 134.882 98.354 144.215 88.1544C148.882 83.0545 148.215 83.0545 154.882 85.9687ZM159.882 132.596L167.215 141.338L156.215 157.731C150.215 166.838 144.215 174.487 142.882 174.487C139.548 174.852 135.215 156.638 136.548 147.895C137.548 139.517 146.548 123.853 149.882 123.853C151.215 123.853 155.882 127.86 159.882 132.596Z" fill="#D3B39B"/>
</svg>
