<svg width="134" height="127" viewBox="0 0 134 127" fill="none" xmlns="http://www.w3.org/2000/svg">
<mask id="path-1-outside-1_463_3936" maskUnits="userSpaceOnUse" x="-1" y="0" width="129" height="127" fill="black">
<rect fill="white" x="-1" width="129" height="127"/>
<path d="M124.424 73.8567C124.806 73.9216 125.169 73.6643 125.23 73.2815C127.454 59.2451 124.829 44.8613 117.775 32.5079C110.604 19.9512 99.3022 10.2691 85.7937 5.11129C72.2852 -0.0464716 57.4061 -0.36077 43.6919 4.22195C29.9776 8.80467 18.2765 18.0009 10.5825 30.2436C2.88846 42.4863 -0.322555 57.0181 1.49658 71.363C3.31572 85.7078 10.0524 98.9781 20.5589 108.913C31.0654 118.847 44.6915 124.832 59.1156 125.846C73.3062 126.844 87.4052 122.971 99.0879 114.879C99.4065 114.658 99.4809 114.219 99.2567 113.903C99.0325 113.587 98.5945 113.513 98.2759 113.734C86.858 121.638 73.0807 125.421 59.2141 124.446C45.1138 123.455 31.7937 117.605 21.5231 107.893C11.2525 98.1814 4.66706 85.2091 2.88877 71.1864C1.11048 57.1637 4.24939 42.9582 11.7707 30.9903C19.292 19.0225 30.7303 10.0328 44.1366 5.55294C57.543 1.07312 72.0879 1.38036 85.2931 6.42232C98.4983 11.4643 109.547 20.929 116.556 33.2038C123.449 45.2752 126.016 59.33 123.846 73.0463C123.786 73.4291 124.042 73.7917 124.424 73.8567Z"/>
</mask>
<path d="M124.424 73.8567C124.806 73.9216 125.169 73.6643 125.23 73.2815C127.454 59.2451 124.829 44.8613 117.775 32.5079C110.604 19.9512 99.3022 10.2691 85.7937 5.11129C72.2852 -0.0464716 57.4061 -0.36077 43.6919 4.22195C29.9776 8.80467 18.2765 18.0009 10.5825 30.2436C2.88846 42.4863 -0.322555 57.0181 1.49658 71.363C3.31572 85.7078 10.0524 98.9781 20.5589 108.913C31.0654 118.847 44.6915 124.832 59.1156 125.846C73.3062 126.844 87.4052 122.971 99.0879 114.879C99.4065 114.658 99.4809 114.219 99.2567 113.903C99.0325 113.587 98.5945 113.513 98.2759 113.734C86.858 121.638 73.0807 125.421 59.2141 124.446C45.1138 123.455 31.7937 117.605 21.5231 107.893C11.2525 98.1814 4.66706 85.2091 2.88877 71.1864C1.11048 57.1637 4.24939 42.9582 11.7707 30.9903C19.292 19.0225 30.7303 10.0328 44.1366 5.55294C57.543 1.07312 72.0879 1.38036 85.2931 6.42232C98.4983 11.4643 109.547 20.929 116.556 33.2038C123.449 45.2752 126.016 59.33 123.846 73.0463C123.786 73.4291 124.042 73.7917 124.424 73.8567Z" fill="#AEABAB"/>
<path d="M124.424 73.8567C124.806 73.9216 125.169 73.6643 125.23 73.2815C127.454 59.2451 124.829 44.8613 117.775 32.5079C110.604 19.9512 99.3022 10.2691 85.7937 5.11129C72.2852 -0.0464716 57.4061 -0.36077 43.6919 4.22195C29.9776 8.80467 18.2765 18.0009 10.5825 30.2436C2.88846 42.4863 -0.322555 57.0181 1.49658 71.363C3.31572 85.7078 10.0524 98.9781 20.5589 108.913C31.0654 118.847 44.6915 124.832 59.1156 125.846C73.3062 126.844 87.4052 122.971 99.0879 114.879C99.4065 114.658 99.4809 114.219 99.2567 113.903C99.0325 113.587 98.5945 113.513 98.2759 113.734C86.858 121.638 73.0807 125.421 59.2141 124.446C45.1138 123.455 31.7937 117.605 21.5231 107.893C11.2525 98.1814 4.66706 85.2091 2.88877 71.1864C1.11048 57.1637 4.24939 42.9582 11.7707 30.9903C19.292 19.0225 30.7303 10.0328 44.1366 5.55294C57.543 1.07312 72.0879 1.38036 85.2931 6.42232C98.4983 11.4643 109.547 20.929 116.556 33.2038C123.449 45.2752 126.016 59.33 123.846 73.0463C123.786 73.4291 124.042 73.7917 124.424 73.8567Z" stroke="#AEABAB" stroke-width="2" mask="url(#path-1-outside-1_463_3936)"/>
<path d="M80 21.75V33.375C81.9483 36.0125 83.2152 39.0902 83.6884 42.3349C84.1616 45.5796 83.8264 48.891 82.7125 51.975L81.9375 53.9125C80.4415 57.8572 79.8059 62.076 80.0732 66.2863C80.3405 70.4967 81.5046 74.6012 83.4875 78.325C86.5875 83.3625 91.625 91.5 91.625 91.5C91.625 91.5 79.6125 99.25 64.5 99.25C49.3875 99.25 37.375 91.5 37.375 91.5C37.375 91.5 42.4125 83.3625 45.5125 77.9375C47.4393 74.2649 48.5729 70.2284 48.8399 66.0897C49.1069 61.9509 48.5014 57.8023 47.0625 53.9125L46.2875 51.975C45.3329 48.8674 45.0811 45.5865 45.5502 42.3697C46.0193 39.1528 47.1977 36.0805 49 33.375V21.75" stroke="#AEABAB" stroke-width="5" stroke-linecap="round" stroke-linejoin="round"/>
<path d="M80 33.375C73.025 33.375 67.2125 37.25 64.5 43.0625C61.7875 37.25 55.975 33.375 49 33.375" stroke="#AEABAB" stroke-width="5" stroke-linecap="round" stroke-linejoin="round"/>
<path d="M117.5 81.75C109.938 81.75 103.75 87.9375 103.75 95.5C103.75 103.062 109.938 109.25 117.5 109.25C125.062 109.25 131.25 103.062 131.25 95.5C131.25 87.9375 125.062 81.75 117.5 81.75ZM114.75 102.375L107.875 95.5L109.814 93.5613L114.75 98.4837L125.186 88.0475L127.125 90L114.75 102.375Z" fill="#AEABAB"/>
</svg>
