<svg width="157" height="161" viewBox="0 0 157 161" fill="none" xmlns="http://www.w3.org/2000/svg">
<g clip-path="url(#clip0_463_3950)">
<path d="M22.0156 133.144C49.1091 160.357 91.6788 163.435 122.153 140.32L122.799 139.825C136.283 129.368 145.939 114.81 150.422 97.8887C151.687 93.1644 152.332 85.9433 152.352 78.7949C152.371 71.6484 151.767 64.5019 150.5 59.9297L150.499 59.9307C142.806 31.547 120.823 10.0094 93.0146 3.69727L93.0137 3.69824C90.1234 3.02271 85.1183 2.45142 80.2676 2.1377C75.4232 1.8244 70.6524 1.76138 68.252 2.12305V2.12402C58.8463 3.38456 49.509 6.13988 42.3525 9.77344V9.77441C-4.52835 33.2813 -14.8971 96.0671 22.0156 133.144ZM98.8311 148.461C64.1235 160.133 25.6068 143.248 10.1064 109.463V109.462C2.51373 92.9638 1.42849 72.0161 7.39355 54.8193C15.8392 30.4595 35.7506 12.9421 61.8076 6.86621H61.8086C64.7416 6.17753 71.2343 5.93787 77.8135 6.09473C84.3913 6.25157 90.9255 6.80153 93.9395 7.64453L93.9434 7.64551L95.0938 7.9668C106.922 11.3659 117.016 17.179 125.877 25.5518C141.147 39.9557 148.893 57.927 148.815 78.9482V78.9492C148.738 111.025 129.212 138.263 98.8311 148.461Z" fill="#AEABAB" stroke="#AEABAB"/>
<path d="M100.705 28.0879C93.2927 31.2227 90.2497 41.2541 94.9312 47.367C98.2862 51.7558 101.173 53.2448 106.011 52.853C113.033 52.3827 117.87 47.2103 117.87 40.3921C117.87 35.6899 116.388 32.7118 112.799 29.8904C109.678 27.5393 103.982 26.6773 100.705 28.0879ZM110.692 31.693C113.111 33.182 115.53 37.3356 115.53 40.0002C115.53 43.135 113.423 47.2887 111.004 48.8561C108.429 50.5019 103.202 50.737 100.393 49.2479C94.8531 46.2699 93.6048 38.041 98.0521 33.4171C101.641 29.6553 106.401 29.0284 110.692 31.693Z" fill="#AEABAB"/>
<path d="M103.983 32.7903C103.515 33.9658 102.579 35.063 101.955 35.2981C100.472 35.9251 100.316 39.2167 101.72 40.3922C102.189 40.8624 103.671 41.3327 104.919 41.4894C108.587 41.8813 108.431 43.6838 104.685 43.6838C102.345 43.6838 101.486 43.9973 101.486 44.8593C101.486 45.4863 101.955 46.0349 102.579 46.0349C103.125 46.0349 103.827 46.7402 104.061 47.6023C104.529 49.5616 106.012 49.6399 106.714 47.759C107.026 47.0537 107.884 45.9565 108.665 45.4079C110.303 44.2324 110.537 41.0976 109.133 39.922C108.587 39.4518 107.104 38.9816 105.778 38.8248C102.501 38.5113 102.891 37.1007 106.402 36.7872C108.275 36.6304 109.289 36.1602 109.289 35.3765C109.289 34.7496 108.899 34.2793 108.431 34.2793C107.962 34.2793 106.948 33.4956 106.168 32.4768L104.763 30.7527L103.983 32.7903Z" fill="#AEABAB"/>
<path d="M71.3696 29.8905C71.1356 31.066 70.1993 32.0065 69.0289 32.2416C66.6102 32.8685 66.6102 34.1225 69.0289 34.9845C70.0432 35.3764 71.0575 36.4736 71.2916 37.3356C71.8378 39.53 74.0225 39.4516 74.3346 37.1789C74.4906 36.0817 75.1928 35.3764 76.3632 35.2196C78.6259 34.9062 78.5479 32.8685 76.2071 32.0065C75.1928 31.6146 74.1785 30.5174 73.9444 29.6553C73.3983 27.461 71.9938 27.6177 71.3696 29.8905Z" fill="#AEABAB"/>
<path d="M44.2956 31.6145C43.9835 31.928 43.7494 32.9468 43.7494 33.9656C43.7494 36.5519 40.2383 40.3136 37.0393 41.0973C33.2942 41.9594 33.3722 42.9782 37.3514 44.3105C40.7845 45.4077 43.7494 48.856 43.7494 51.6773C43.7494 52.3827 44.1395 53.2447 44.6077 53.5582C45.7 54.1852 46.8704 52.461 46.8704 50.2667C46.8704 47.9156 50.4595 44.624 53.5805 43.997C55.0629 43.7619 56.2333 43.0566 56.2333 42.508C56.2333 41.9594 55.0629 41.2541 53.5805 41.019C50.2254 40.392 47.0264 37.1788 46.7143 34.044C46.4803 31.6929 45.3879 30.5957 44.2956 31.6145ZM41.0186 42.6647L47.1825 44.7024V40.4704H47.1045L41.0186 42.6647Z" fill="#AEABAB"/>
<path d="M75.7399 50.0317C75.7399 52.1477 71.6827 56.223 69.576 56.223C68.6397 56.223 67.9375 56.6932 67.9375 57.3985C67.9375 58.1039 68.6397 58.5741 69.576 58.5741C71.6827 58.5741 75.7399 62.6494 75.7399 64.7654C75.7399 65.7058 76.2081 66.4111 76.9103 66.4111C77.6125 66.4111 78.0807 65.7058 78.0807 64.7654C78.0807 62.6494 82.1379 58.5741 84.2446 58.5741C85.1809 58.5741 85.8831 58.1039 85.8831 57.3985C85.8831 56.6932 85.1809 56.223 84.2446 56.223C83.3863 56.223 81.5917 55.2042 80.3434 53.9502C79.095 52.6963 78.0807 50.8938 78.0807 50.0317C78.0807 49.0913 77.6125 48.3859 76.9103 48.3859C76.2081 48.3859 75.7399 49.0913 75.7399 50.0317ZM73.499 56.223C72.3287 57.5553 76.9883 60.0631 75.5839 58.8092C74.2575 57.6336 78.7506 58.9116 79.999 57.501C81.1694 56.1687 76.8323 54.7339 78.2367 55.9879C79.5631 57.1634 74.7474 54.8123 73.499 56.223Z" fill="#AEABAB"/>
<path d="M121.695 53.4009C121.227 54.4197 119.979 55.6736 118.887 56.1438C116.936 57.0059 117.092 58.5733 119.121 58.5733C119.745 58.5733 120.681 59.4354 121.149 60.5326C122.242 62.8837 123.802 63.0404 124.348 60.8461C124.582 59.984 125.519 59.0435 126.377 58.8084C128.484 58.2598 128.484 56.5357 126.455 55.9871C125.597 55.752 124.582 54.6548 124.114 53.5576C123.178 51.0498 122.788 50.9714 121.695 53.4009Z" fill="#AEABAB"/>
<path d="M99.2959 135.847C101.733 136.567 104.364 135.468 106.09 133.774C107.858 132.039 108.88 129.454 107.531 127.281L107.532 127.28C107.34 126.965 107.247 126.779 107.212 126.668C107.346 126.608 107.617 126.541 108.128 126.482C108.658 126.422 109.374 126.374 110.33 126.315C111.814 126.237 112.892 126.098 113.609 125.847C113.971 125.72 114.285 125.551 114.511 125.308C114.75 125.05 114.861 124.74 114.861 124.405C114.861 124.063 114.669 123.806 114.399 123.638C114.158 123.486 113.822 123.382 113.406 123.298C112.563 123.128 111.178 123.004 108.99 122.906C104.6 122.71 96.8453 122.612 83.3906 122.494H83.3887L52.8379 122.34L52.0996 120.315L51.541 118.633L82.6084 118.479H82.6094L114.287 118.244L114.649 118.241L114.76 117.896L121.626 96.3438V96.3428C123.499 90.4243 125.216 84.8766 126.466 80.71C127.09 78.6272 127.599 76.8869 127.951 75.6172C128.127 74.983 128.266 74.4628 128.36 74.0742C128.408 73.8802 128.445 73.7143 128.471 73.582C128.494 73.4633 128.516 73.3329 128.516 73.2295C128.516 73.0391 128.495 72.8156 128.392 72.5977C128.283 72.3695 128.107 72.1934 127.876 72.0596C127.453 71.8144 126.789 71.6825 125.817 71.5947C123.838 71.4158 120.2 71.3975 113.581 71.3975H100.065L101.107 70.002C102.078 68.7016 103.273 66.3799 103.835 64.6875H103.834L104.493 62.7529L105.58 64.625C106.02 65.388 106.457 66.0171 106.869 66.498C107.275 66.9706 107.686 67.3333 108.082 67.5195C108.283 67.6142 108.51 67.6768 108.745 67.6582C108.993 67.6386 109.213 67.5314 109.384 67.3496C109.694 67.0181 109.79 66.4952 109.79 65.9404C109.79 65.6427 109.687 65.2673 109.551 64.8838C109.409 64.4838 109.209 64.0168 108.97 63.5146C108.492 62.5093 107.847 61.3332 107.173 60.2158C106.499 59.0995 105.788 58.0292 105.176 57.2373C104.871 56.8433 104.581 56.5042 104.324 56.2617C104.196 56.1412 104.063 56.0319 103.93 55.9512C103.817 55.883 103.643 55.7985 103.438 55.8027V55.8018C103.436 55.8018 103.433 55.8027 103.431 55.8027C103.42 55.8031 103.41 55.8019 103.399 55.8027V55.8057C103.256 55.8141 103.114 55.8639 103.02 55.9023C102.894 55.9533 102.748 56.0241 102.589 56.1084C102.27 56.2777 101.867 56.5185 101.412 56.8115C100.5 57.3989 99.3548 58.2118 98.2109 59.123V59.124C96.6208 60.3707 95.5933 61.2692 95.0605 61.9756C94.7921 62.3314 94.6053 62.6942 94.5781 63.0713C94.5497 63.4673 94.7023 63.7955 94.9355 64.0625C95.1338 64.3059 95.365 64.5257 95.6553 64.6533C95.9615 64.788 96.2826 64.7981 96.6133 64.71C96.9288 64.6258 97.2568 64.4519 97.6084 64.2178C97.8749 64.0403 98.1703 63.8173 98.501 63.5498L98.8438 63.2676L98.8525 63.2598C99.4612 62.7248 100.087 62.2496 100.602 61.9111C100.837 61.7566 101.043 61.636 101.209 61.5508C101.202 61.5964 101.193 61.6475 101.182 61.7041C101.079 62.2006 100.825 62.9253 100.454 63.7715C99.7157 65.4572 98.5648 67.517 97.4238 69.0068L97.4209 69.0098L95.6201 71.3975H37.334L35.4893 65.2529L35.4912 65.252L33.6182 58.8262L33.5137 58.4658H26.1162C23.3166 58.4658 21.5363 58.5233 20.4531 58.708C19.9171 58.7994 19.4812 58.9321 19.1729 59.1562C18.8222 59.4113 18.6719 59.7583 18.6719 60.1416C18.6719 60.5094 18.8039 60.8483 19.1133 61.1152C19.3937 61.3571 19.789 61.5127 20.2646 61.627C21.2187 61.8561 22.7506 61.9736 25.082 62.0518L30.6553 62.2734L35.4688 78.1553V78.1562C38.1996 87.0906 42.5683 101.431 45.1426 110.05L45.1436 110.052L49.9033 125.726L50.0049 126.061L50.3535 126.08L54.4883 126.315C55.446 126.374 56.1575 126.422 56.6807 126.483C57.2068 126.545 57.4664 126.616 57.585 126.678C57.5602 126.804 57.4702 127.011 57.2734 127.387L57.2715 127.389C56.0785 129.696 57.0637 132.242 58.8447 133.928C60.5754 135.566 63.1879 136.53 65.6777 135.771L65.918 135.692L65.9258 135.689C67.5415 135.092 68.8777 133.781 69.6572 132.299C70.4326 130.824 70.7002 129.088 70.0293 127.646L70.0303 127.646L69.4951 126.473H95.2051L94.9082 128.323L94.9072 128.328C94.4087 131.666 96.0714 134.742 99.0615 135.771L99.2959 135.847ZM81.0449 115.284C72.5031 115.284 64.7432 115.226 59.1201 115.118C56.3078 115.064 54.0336 114.998 52.4648 114.921C51.6792 114.882 51.0785 114.842 50.6777 114.8C50.5734 114.789 50.4864 114.779 50.416 114.769C50.3964 114.692 50.3743 114.602 50.3467 114.5C50.2623 114.189 50.1385 113.753 49.9805 113.206C49.6641 112.112 49.2073 110.567 48.6465 108.687C47.5246 104.924 45.9841 99.8091 44.3066 94.2451L44.3057 94.2432L38.3398 74.748H64.5039C71.8758 74.748 78.5836 74.7869 83.4473 74.8555C85.8795 74.8897 87.8481 74.9319 89.207 74.9795C89.5483 74.9914 89.8496 75.004 90.1094 75.0166C90.0307 75.0635 89.9483 75.1154 89.8594 75.166C89.1037 75.5963 88.034 76.1281 86.7969 76.6934C84.3247 77.8229 81.2239 79.069 78.7109 79.8848V79.8838C72.9839 81.6716 64.8405 83.0759 58.5615 83.3887C56.9604 83.4279 55.8237 83.5448 55.0762 83.7842C54.6995 83.9048 54.3754 84.0703 54.1426 84.3135C53.895 84.5721 53.7833 84.8848 53.7832 85.2197C53.7832 85.5681 53.8925 85.9163 54.2158 86.1826C54.5032 86.4193 54.9089 86.5473 55.3936 86.625C56.3698 86.7815 57.9828 86.7773 60.5479 86.6602H60.5469C71.804 86.353 83.9568 82.9413 92.0938 77.8291L92.8691 77.3291L92.8711 77.3281L96.7256 74.748H110.772C114.63 74.748 118.154 74.8067 120.711 74.9043C121.991 74.9532 123.021 75.0123 123.729 75.0771C123.955 75.0979 124.143 75.1209 124.292 75.1416C124.231 75.3598 124.149 75.6522 124.044 76.0107C123.806 76.8235 123.46 77.9724 123.031 79.3721C122.174 82.1714 120.985 85.97 119.659 90.082L119.658 90.0859C117.084 98.3141 114.197 107.404 113.262 110.302L113.26 110.309L111.729 115.284H81.0449ZM65.8662 131.732C64.0075 133.599 60.6348 132.204 60.6348 129.499C60.6348 129.093 60.7195 128.641 60.8682 128.229C61.0184 127.811 61.2198 127.472 61.4248 127.266C61.6297 127.06 61.9679 126.858 62.3828 126.707C62.7932 126.558 63.2425 126.473 63.6455 126.473C64.0485 126.473 64.4978 126.558 64.9082 126.707C65.3231 126.858 65.6613 127.06 65.8662 127.266C66.0712 127.472 66.2726 127.811 66.4229 128.229C66.5715 128.641 66.6572 129.093 66.6572 129.499C66.6572 129.905 66.5714 130.357 66.4229 130.77C66.2726 131.187 66.0712 131.526 65.8662 131.732ZM103.117 131.859C101.907 132.847 100.329 132.466 99.2373 131.37C98.1461 130.274 97.7656 128.686 98.751 127.468C99.2212 126.901 100.066 126.545 100.985 126.501C101.903 126.457 102.782 126.728 103.317 127.266C103.853 127.804 104.124 128.688 104.08 129.612C104.036 130.537 103.681 131.386 103.117 131.858V131.859Z" fill="#AEABAB" stroke="#AEABAB"/>
<path d="M100.472 78.6362C100.16 78.9497 99.9258 86.5516 99.9258 95.5642V111.865H104.607H109.289L109.133 95.1723L108.899 78.5578L104.997 78.3227C102.813 78.166 100.784 78.3227 100.472 78.6362ZM106.558 95.4075V109.514H104.451H102.267V95.4075V81.3008H104.451H106.558V95.4075Z" fill="#AEABAB"/>
<path d="M85.0234 85.7686C85.0234 86.1605 85.0234 92.0383 85.0234 98.9349V111.474L89.3148 111.709L93.6841 111.944V98.543V85.22H89.3928C87.0521 85.22 85.1015 85.4552 85.0234 85.7686ZM91.3434 98.543V109.515H89.3928H87.4422V98.543V87.5712H89.3928H91.3434V98.543Z" fill="#AEABAB"/>
<path d="M69.8883 91.7248C69.6543 92.2734 69.5762 97.1323 69.6543 102.54L69.8883 112.258H74.1797H78.471V101.678V91.0978L74.3357 90.8627C71.4488 90.706 70.1224 90.9411 69.8883 91.7248ZM75.9742 101.521L76.1303 109.515H74.0236H71.8389V101.835C71.8389 97.6026 72.073 93.8408 72.3851 93.5273C72.6972 93.2138 73.6335 93.0571 74.4137 93.2138C75.7402 93.4489 75.8962 94.311 75.9742 101.521Z" fill="#AEABAB"/>
<path d="M54.4364 96.74C53.5001 97.6021 53.8122 110.925 54.7485 111.552C55.2947 111.865 57.2453 112.101 59.2739 112.101H62.863L63.0971 104.107L63.3312 96.1914H59.1179C56.7772 96.1914 54.6705 96.4265 54.4364 96.74ZM60.9124 104.028C60.9124 109.358 60.8344 109.514 58.9618 109.514C57.0892 109.514 57.0112 109.358 57.0112 104.028C57.0112 98.6993 57.0892 98.5425 58.9618 98.5425C60.8344 98.5425 60.9124 98.6993 60.9124 104.028Z" fill="#AEABAB"/>
</g>
<defs>
<clipPath id="clip0_463_3950">
<rect width="157" height="161" fill="white"/>
</clipPath>
</defs>
</svg>
