<svg width="196" height="206" viewBox="0 0 196 206" fill="none" xmlns="http://www.w3.org/2000/svg">
<path d="M3.18368 1.41427C2.19407 3.52703 2.52394 5.28767 4.50317 5.28767C8.46162 5.28767 18.0279 15.1472 18.0279 19.3727C18.0279 21.1334 14.0694 27.4717 9.12136 33.4578L0.544715 44.7259L10.7707 55.6418L21.3266 66.5577L11.1006 77.8258L0.544715 89.446L7.80188 98.9534C16.3785 110.574 16.3785 114.799 7.80188 126.771L0.544715 136.279L10.7707 147.195L21.3266 158.111L10.7707 169.731L0.214844 181.351L11.4305 193.676C24.2954 207.761 27.924 208.817 36.1708 198.957C43.7578 189.802 52.9942 189.802 58.2722 198.957C63.2202 207.056 67.5085 208.113 67.5085 201.422C67.5085 194.732 56.6228 184.872 49.6955 184.872C46.3968 184.872 39.4695 188.394 33.8617 192.267L24.2954 199.662L16.0487 191.563L8.13175 183.464L16.7084 173.956L25.6149 164.097L35.1812 171.844L44.7474 179.59L57.6124 172.196L70.4774 164.449L77.7345 172.9C84.6618 180.647 84.6618 181.703 79.3839 189.802C73.4462 200.014 72.4566 206 77.4047 206C79.3839 206 80.7034 203.887 80.7034 201.07C80.7034 198.605 83.0125 194.028 85.9813 191.563C90.5995 187.689 92.5787 188.042 99.1762 196.493C103.464 201.774 108.742 206 110.722 206C113.031 206 110.392 200.718 104.454 194.38L93.8982 182.76L103.135 173.252L112.371 163.745L119.958 172.196C127.215 180.295 127.215 180.999 121.937 189.802C118.968 194.732 116.989 200.718 117.979 203.183C118.968 206 121.278 203.887 123.587 197.901C128.865 186.281 130.184 186.281 140.08 197.197C149.317 207.761 152.285 208.113 163.171 198.957C174.057 189.802 180.984 190.154 187.252 199.662C193.189 209.521 198.137 206 193.189 195.788C187.252 184.168 174.387 182.76 162.511 191.915L152.615 199.662L145.028 191.915L137.111 183.816L145.688 171.844C156.904 156.35 156.904 136.631 146.348 119.729C137.111 105.292 133.483 104.235 133.483 115.503C133.483 123.954 116 153.181 111.052 153.181C109.402 153.181 104.784 149.308 100.826 144.73L93.5684 136.279L104.784 127.124C111.052 122.194 118.309 117.968 121.278 117.968C130.514 117.968 127.545 107.757 116.329 100.362C102.475 91.2066 98.1865 91.5588 80.0436 101.77L64.8696 110.221L58.602 101.066C52.3345 91.5588 52.3345 91.5588 59.9215 79.5864C69.4878 64.7971 69.8176 46.4865 60.5812 33.1057C52.6643 21.1334 47.7163 20.077 47.7163 29.9366C47.7163 33.8099 42.7682 42.9652 36.5007 50.3599L25.285 63.3886L16.7084 54.9376L8.46162 46.4865L16.3785 34.5142C21.6565 25.711 23.3058 19.7249 21.6565 14.7951C18.3578 5.28767 6.15252 -3.5155 3.18368 1.41427ZM60.2514 47.1908C62.8903 55.2897 62.2306 60.2195 56.9527 71.8397C53.3241 79.9386 49.3656 86.2769 48.0461 86.2769C46.7267 86.2769 42.1085 82.4035 38.15 77.8258L30.563 69.3748L41.7786 53.1769C47.7163 44.3738 53.654 37.3312 54.9734 36.9791C55.9631 36.9791 58.602 41.5567 60.2514 47.1908ZM37.8201 98.6013C20.6668 117.968 41.1189 139.8 59.2618 121.49L66.1891 114.447L75.7553 125.011L85.3216 135.575L76.7449 144.73C68.4982 153.533 67.8384 153.885 60.5812 148.251C50.6851 141.209 41.4487 141.209 31.8825 148.251C24.6253 153.533 23.6357 153.533 16.3785 146.138L8.79149 138.392L15.059 126.771C21.6565 114.799 20.0071 100.714 11.4305 95.08C8.79149 93.3194 10.4408 89.0939 16.7084 82.4035L25.9448 72.1918L35.1812 81.6992L44.4176 91.2066L37.8201 98.6013ZM53.654 101.066C62.5605 110.574 53.3241 126.771 42.1085 122.546C34.1916 119.377 39.1396 96.8407 47.7163 96.8407C48.7059 96.8407 51.3449 98.6013 53.654 101.066ZM111.381 104.587C116.329 108.813 115.34 110.221 103.464 121.137L90.2696 132.758L82.0229 124.659C71.7969 114.447 72.1267 112.334 83.3424 105.996C94.558 99.3056 104.124 98.9534 111.381 104.587ZM146.678 133.462C150.966 147.195 148.987 158.463 140.08 170.787L133.813 179.59L125.566 171.139C114.68 160.224 114.68 158.463 126.885 143.674C132.493 137.335 136.781 129.588 136.781 126.771C136.781 117.264 142.719 121.49 146.678 133.462ZM99.8359 150.716L107.093 158.815L97.8567 168.322L88.6203 177.83L80.7034 169.027L73.1163 160.224L80.7034 151.42C90.2696 140.504 90.9294 140.504 99.8359 150.716ZM59.2618 154.237C64.8696 158.815 64.8696 159.519 57.2825 164.801C47.7163 172.196 44.4176 172.196 35.1812 165.153C27.924 159.871 27.924 159.167 33.5318 154.589C41.1189 148.603 51.3449 148.251 59.2618 154.237Z" fill="#D3B39B"/>
</svg>
