<svg width="28" height="25" viewBox="0 0 28 25" fill="none" xmlns="http://www.w3.org/2000/svg">
<path d="M1.66797 20.5837C1.66797 18.9482 2.31767 17.3796 3.47414 16.2232C4.63062 15.0667 6.19913 14.417 7.83464 14.417H20.168C21.8035 14.417 23.372 15.0667 24.5285 16.2232C25.6849 17.3796 26.3346 18.9482 26.3346 20.5837C26.3346 21.4014 26.0098 22.1857 25.4315 22.7639C24.8533 23.3421 24.0691 23.667 23.2513 23.667H4.7513C3.93355 23.667 3.14929 23.3421 2.57106 22.7639C1.99282 22.1857 1.66797 21.4014 1.66797 20.5837Z" stroke="#2D2E2E" stroke-width="1.5" stroke-linejoin="round"/>
<path d="M14 10.417C16.5543 10.417 18.625 8.34631 18.625 5.79199C18.625 3.23768 16.5543 1.16699 14 1.16699C11.4457 1.16699 9.375 3.23768 9.375 5.79199C9.375 8.34631 11.4457 10.417 14 10.417Z" stroke="#2D2E2E" stroke-width="1.5"/>
</svg>
