<svg width="137" height="127" viewBox="0 0 137 127" fill="none" xmlns="http://www.w3.org/2000/svg">
<mask id="path-1-outside-1_463_3944" maskUnits="userSpaceOnUse" x="-1" y="0" width="129" height="127" fill="black">
<rect fill="white" x="-1" width="129" height="127"/>
<path d="M124.424 73.8567C124.806 73.9216 125.169 73.6643 125.23 73.2815C127.454 59.2451 124.829 44.8613 117.775 32.5079C110.604 19.9512 99.3022 10.2691 85.7937 5.11129C72.2852 -0.0464716 57.4061 -0.36077 43.6919 4.22195C29.9776 8.80467 18.2765 18.0009 10.5825 30.2436C2.88846 42.4863 -0.322555 57.0181 1.49658 71.363C3.31572 85.7078 10.0524 98.9781 20.5589 108.913C31.0654 118.847 44.6915 124.832 59.1156 125.846C73.3062 126.844 87.4052 122.971 99.0879 114.879C99.4065 114.658 99.4809 114.219 99.2567 113.903C99.0325 113.587 98.5945 113.513 98.2759 113.734C86.858 121.638 73.0807 125.421 59.2141 124.446C45.1138 123.455 31.7937 117.605 21.5231 107.893C11.2525 98.1814 4.66706 85.2091 2.88877 71.1864C1.11048 57.1637 4.24939 42.9582 11.7707 30.9903C19.292 19.0225 30.7303 10.0328 44.1366 5.55294C57.543 1.07312 72.0879 1.38036 85.2931 6.42232C98.4983 11.4643 109.547 20.929 116.556 33.2038C123.449 45.2752 126.016 59.33 123.846 73.0463C123.786 73.4291 124.042 73.7917 124.424 73.8567Z"/>
</mask>
<path d="M124.424 73.8567C124.806 73.9216 125.169 73.6643 125.23 73.2815C127.454 59.2451 124.829 44.8613 117.775 32.5079C110.604 19.9512 99.3022 10.2691 85.7937 5.11129C72.2852 -0.0464716 57.4061 -0.36077 43.6919 4.22195C29.9776 8.80467 18.2765 18.0009 10.5825 30.2436C2.88846 42.4863 -0.322555 57.0181 1.49658 71.363C3.31572 85.7078 10.0524 98.9781 20.5589 108.913C31.0654 118.847 44.6915 124.832 59.1156 125.846C73.3062 126.844 87.4052 122.971 99.0879 114.879C99.4065 114.658 99.4809 114.219 99.2567 113.903C99.0325 113.587 98.5945 113.513 98.2759 113.734C86.858 121.638 73.0807 125.421 59.2141 124.446C45.1138 123.455 31.7937 117.605 21.5231 107.893C11.2525 98.1814 4.66706 85.2091 2.88877 71.1864C1.11048 57.1637 4.24939 42.9582 11.7707 30.9903C19.292 19.0225 30.7303 10.0328 44.1366 5.55294C57.543 1.07312 72.0879 1.38036 85.2931 6.42232C98.4983 11.4643 109.547 20.929 116.556 33.2038C123.449 45.2752 126.016 59.33 123.846 73.0463C123.786 73.4291 124.042 73.7917 124.424 73.8567Z" fill="#AEABAB"/>
<path d="M124.424 73.8567C124.806 73.9216 125.169 73.6643 125.23 73.2815C127.454 59.2451 124.829 44.8613 117.775 32.5079C110.604 19.9512 99.3022 10.2691 85.7937 5.11129C72.2852 -0.0464716 57.4061 -0.36077 43.6919 4.22195C29.9776 8.80467 18.2765 18.0009 10.5825 30.2436C2.88846 42.4863 -0.322555 57.0181 1.49658 71.363C3.31572 85.7078 10.0524 98.9781 20.5589 108.913C31.0654 118.847 44.6915 124.832 59.1156 125.846C73.3062 126.844 87.4052 122.971 99.0879 114.879C99.4065 114.658 99.4809 114.219 99.2567 113.903C99.0325 113.587 98.5945 113.513 98.2759 113.734C86.858 121.638 73.0807 125.421 59.2141 124.446C45.1138 123.455 31.7937 117.605 21.5231 107.893C11.2525 98.1814 4.66706 85.2091 2.88877 71.1864C1.11048 57.1637 4.24939 42.9582 11.7707 30.9903C19.292 19.0225 30.7303 10.0328 44.1366 5.55294C57.543 1.07312 72.0879 1.38036 85.2931 6.42232C98.4983 11.4643 109.547 20.929 116.556 33.2038C123.449 45.2752 126.016 59.33 123.846 73.0463C123.786 73.4291 124.042 73.7917 124.424 73.8567Z" stroke="#AEABAB" stroke-width="2" mask="url(#path-1-outside-1_463_3944)"/>
<path d="M96.375 90.75C96.375 90.75 101 90.75 101 86.125C101 81.5 96.375 67.625 77.875 67.625C59.375 67.625 54.75 81.5 54.75 86.125C54.75 90.75 59.375 90.75 59.375 90.75H96.375ZM59.4767 86.125L59.375 86.1065C59.3796 84.8855 60.1474 81.3428 62.89 78.1515C65.443 75.1591 69.9292 72.25 77.875 72.25C85.8161 72.25 90.3024 75.1637 92.86 78.1515C95.6026 81.3428 96.3658 84.8901 96.375 86.1065L96.338 86.1157L96.2732 86.125H59.4767ZM77.875 58.375C80.3283 58.375 82.681 57.4004 84.4157 55.6657C86.1504 53.931 87.125 51.5783 87.125 49.125C87.125 46.6717 86.1504 44.319 84.4157 42.5843C82.681 40.8496 80.3283 39.875 77.875 39.875C75.4217 39.875 73.069 40.8496 71.3343 42.5843C69.5996 44.319 68.625 46.6717 68.625 49.125C68.625 51.5783 69.5996 53.931 71.3343 55.6657C73.069 57.4004 75.4217 58.375 77.875 58.375ZM91.75 49.125C91.75 50.9471 91.3911 52.7513 90.6938 54.4347C89.9965 56.1181 88.9745 57.6477 87.6861 58.9361C86.3977 60.2245 84.8681 61.2465 83.1847 61.9438C81.5013 62.6411 79.6971 63 77.875 63C76.0529 63 74.2487 62.6411 72.5653 61.9438C70.8819 61.2465 69.3523 60.2245 68.0639 58.9361C66.7755 57.6477 65.7535 56.1181 65.0562 54.4347C64.3589 52.7513 64 50.9471 64 49.125C64 45.4451 65.4618 41.916 68.0639 39.3139C70.666 36.7118 74.1951 35.25 77.875 35.25C81.5549 35.25 85.084 36.7118 87.6861 39.3139C90.2882 41.916 91.75 45.4451 91.75 49.125ZM59.079 68.92C57.2279 68.3415 55.3212 67.9586 53.3902 67.7776C52.3051 67.6718 51.2153 67.6209 50.125 67.625C31.625 67.625 27 81.5 27 86.125C27 89.2083 28.5417 90.75 31.625 90.75H51.124C50.4387 89.306 50.0968 87.7231 50.125 86.125C50.125 81.4538 51.8686 76.6807 55.1663 72.694C56.2901 71.3342 57.599 70.0624 59.079 68.92ZM49.755 72.25C47.0194 76.3637 45.5409 81.1849 45.5 86.125H31.625C31.625 84.9225 32.3835 81.3613 35.14 78.1515C37.6606 75.21 42.0405 72.3425 49.755 72.2546V72.25ZM33.9375 51.4375C33.9375 47.7576 35.3993 44.2285 38.0014 41.6264C40.6035 39.0243 44.1326 37.5625 47.8125 37.5625C51.4924 37.5625 55.0215 39.0243 57.6236 41.6264C60.2257 44.2285 61.6875 47.7576 61.6875 51.4375C61.6875 55.1174 60.2257 58.6465 57.6236 61.2486C55.0215 63.8507 51.4924 65.3125 47.8125 65.3125C44.1326 65.3125 40.6035 63.8507 38.0014 61.2486C35.3993 58.6465 33.9375 55.1174 33.9375 51.4375ZM47.8125 42.1875C45.3592 42.1875 43.0065 43.1621 41.2718 44.8968C39.5371 46.6315 38.5625 48.9842 38.5625 51.4375C38.5625 53.8908 39.5371 56.2435 41.2718 57.9782C43.0065 59.7129 45.3592 60.6875 47.8125 60.6875C50.2658 60.6875 52.6185 59.7129 54.3532 57.9782C56.0879 56.2435 57.0625 53.8908 57.0625 51.4375C57.0625 48.9842 56.0879 46.6315 54.3532 44.8968C52.6185 43.1621 50.2658 42.1875 47.8125 42.1875Z" fill="#AEABAB"/>
<rect x="105" y="84" width="31" height="31" rx="15.5" stroke="#AEABAB" stroke-width="2"/>
<path d="M122.332 104.179L117.821 102.028C117.388 102.404 116.837 102.659 116.239 102.762C115.64 102.864 115.02 102.81 114.457 102.605C113.894 102.4 113.412 102.053 113.074 101.61C112.735 101.166 112.555 100.644 112.555 100.111C112.555 99.5772 112.735 99.0557 113.074 98.6118C113.412 98.168 113.894 97.8217 114.457 97.6167C115.02 97.4116 115.64 97.3569 116.239 97.4596C116.837 97.5622 117.388 97.8175 117.821 98.1933L122.332 96.0421C122.177 95.4074 122.289 94.7452 122.647 94.1767C123.005 93.6081 123.584 93.1711 124.28 92.9456C124.976 92.7202 125.742 92.7213 126.437 92.9488C127.132 93.1762 127.71 93.6149 128.066 94.1845C128.421 94.7541 128.531 95.4166 128.374 96.0509C128.216 96.6851 127.803 97.2487 127.21 97.6386C126.617 98.0285 125.883 98.2186 125.142 98.1742C124.402 98.1298 123.705 97.8538 123.178 97.3967L118.667 99.548C118.757 99.9187 118.757 100.302 118.667 100.673L123.178 102.825C123.705 102.368 124.402 102.092 125.142 102.047C125.883 102.003 126.617 102.193 127.21 102.583C127.803 102.973 128.216 103.536 128.374 104.17C128.531 104.805 128.421 105.467 128.066 106.037C127.71 106.606 127.132 107.045 126.437 107.273C125.742 107.5 124.976 107.501 124.28 107.276C123.584 107.05 123.005 106.613 122.647 106.045C122.289 105.476 122.177 104.814 122.332 104.179Z" fill="#AEABAB"/>
</svg>
