<svg width="22" height="25" viewBox="0 0 22 25" fill="none" xmlns="http://www.w3.org/2000/svg">
<path fill-rule="evenodd" clip-rule="evenodd" d="M1.20011 18.2964C1.14705 21.2263 3.47814 23.6452 6.40811 23.7004H15.5921C18.5221 23.6452 20.8531 21.2263 20.8001 18.2964L20.1883 11.7332C20.033 9.2588 18.3016 7.16613 15.9001 6.5503C15.3997 6.40473 14.8813 6.33026 14.3601 6.3291H7.64006C7.11894 6.33026 6.60054 6.40473 6.10011 6.5503C3.70013 7.16633 1.96959 9.25745 1.81331 11.7304L1.20011 18.2964Z" stroke="#2D2E2E" stroke-width="1.5" stroke-linecap="round" stroke-linejoin="round"/>
<path d="M15.9015 8.84388V6.01447C15.8488 3.36033 13.6558 1.25071 11.0015 1.30067C8.34729 1.25071 6.1544 3.36033 6.10156 6.01447V8.84247" stroke="#2D2E2E" stroke-width="1.5" stroke-linecap="round" stroke-linejoin="round"/>
</svg>
