<svg width="138" height="127" viewBox="0 0 138 127" fill="none" xmlns="http://www.w3.org/2000/svg">
<path d="M34.3828 84.1799C34.3828 80.0516 36.0228 76.0925 38.9419 73.1733C41.861 70.2542 45.8202 68.6143 49.9485 68.6143H81.0798C85.2081 68.6143 89.1672 70.2542 92.0864 73.1733C95.0055 76.0925 96.6454 80.0516 96.6454 84.1799C96.6454 86.2441 95.8255 88.2236 94.3659 89.6832C92.9063 91.1428 90.9267 91.9627 88.8626 91.9627H42.1656C40.1015 91.9627 38.1219 91.1428 36.6623 89.6832C35.2028 88.2236 34.3828 86.2441 34.3828 84.1799Z" stroke="#AEABAB" stroke-width="4" stroke-linejoin="round"/>
<path d="M65.5141 55.7323C71.9616 55.7323 77.1883 50.5055 77.1883 44.058C77.1883 37.6105 71.9616 32.3838 65.5141 32.3838C59.0666 32.3838 53.8398 37.6105 53.8398 44.058C53.8398 50.5055 59.0666 55.7323 65.5141 55.7323Z" stroke="#AEABAB" stroke-width="4"/>
<mask id="path-3-outside-1_463_3925" maskUnits="userSpaceOnUse" x="-1" y="0" width="129" height="127" fill="black">
<rect fill="white" x="-1" width="129" height="127"/>
<path d="M124.424 73.8567C124.806 73.9216 125.169 73.6643 125.23 73.2815C127.454 59.2451 124.829 44.8613 117.775 32.5079C110.604 19.9512 99.3022 10.2691 85.7937 5.11129C72.2852 -0.0464716 57.4061 -0.36077 43.6919 4.22195C29.9776 8.80467 18.2765 18.0009 10.5825 30.2436C2.88846 42.4863 -0.322555 57.0181 1.49658 71.363C3.31572 85.7078 10.0524 98.9781 20.5589 108.913C31.0654 118.847 44.6915 124.832 59.1156 125.846C73.3062 126.844 87.4052 122.971 99.0879 114.879C99.4065 114.658 99.4809 114.219 99.2567 113.903C99.0325 113.587 98.5945 113.513 98.2759 113.734C86.858 121.638 73.0807 125.421 59.2141 124.446C45.1138 123.455 31.7937 117.605 21.5231 107.893C11.2525 98.1814 4.66706 85.2091 2.88877 71.1864C1.11048 57.1637 4.24939 42.9582 11.7707 30.9903C19.292 19.0225 30.7303 10.0328 44.1366 5.55294C57.543 1.07312 72.0879 1.38036 85.2931 6.42232C98.4983 11.4643 109.547 20.929 116.556 33.2038C123.449 45.2752 126.016 59.33 123.846 73.0463C123.786 73.4291 124.042 73.7917 124.424 73.8567Z"/>
</mask>
<path d="M124.424 73.8567C124.806 73.9216 125.169 73.6643 125.23 73.2815C127.454 59.2451 124.829 44.8613 117.775 32.5079C110.604 19.9512 99.3022 10.2691 85.7937 5.11129C72.2852 -0.0464716 57.4061 -0.36077 43.6919 4.22195C29.9776 8.80467 18.2765 18.0009 10.5825 30.2436C2.88846 42.4863 -0.322555 57.0181 1.49658 71.363C3.31572 85.7078 10.0524 98.9781 20.5589 108.913C31.0654 118.847 44.6915 124.832 59.1156 125.846C73.3062 126.844 87.4052 122.971 99.0879 114.879C99.4065 114.658 99.4809 114.219 99.2567 113.903C99.0325 113.587 98.5945 113.513 98.2759 113.734C86.858 121.638 73.0807 125.421 59.2141 124.446C45.1138 123.455 31.7937 117.605 21.5231 107.893C11.2525 98.1814 4.66706 85.2091 2.88877 71.1864C1.11048 57.1637 4.24939 42.9582 11.7707 30.9903C19.292 19.0225 30.7303 10.0328 44.1366 5.55294C57.543 1.07312 72.0879 1.38036 85.2931 6.42232C98.4983 11.4643 109.547 20.929 116.556 33.2038C123.449 45.2752 126.016 59.33 123.846 73.0463C123.786 73.4291 124.042 73.7917 124.424 73.8567Z" fill="#AEABAB"/>
<path d="M124.424 73.8567C124.806 73.9216 125.169 73.6643 125.23 73.2815C127.454 59.2451 124.829 44.8613 117.775 32.5079C110.604 19.9512 99.3022 10.2691 85.7937 5.11129C72.2852 -0.0464716 57.4061 -0.36077 43.6919 4.22195C29.9776 8.80467 18.2765 18.0009 10.5825 30.2436C2.88846 42.4863 -0.322555 57.0181 1.49658 71.363C3.31572 85.7078 10.0524 98.9781 20.5589 108.913C31.0654 118.847 44.6915 124.832 59.1156 125.846C73.3062 126.844 87.4052 122.971 99.0879 114.879C99.4065 114.658 99.4809 114.219 99.2567 113.903C99.0325 113.587 98.5945 113.513 98.2759 113.734C86.858 121.638 73.0807 125.421 59.2141 124.446C45.1138 123.455 31.7937 117.605 21.5231 107.893C11.2525 98.1814 4.66706 85.2091 2.88877 71.1864C1.11048 57.1637 4.24939 42.9582 11.7707 30.9903C19.292 19.0225 30.7303 10.0328 44.1366 5.55294C57.543 1.07312 72.0879 1.38036 85.2931 6.42232C98.4983 11.4643 109.547 20.929 116.556 33.2038C123.449 45.2752 126.016 59.33 123.846 73.0463C123.786 73.4291 124.042 73.7917 124.424 73.8567Z" stroke="#AEABAB" stroke-width="2" mask="url(#path-3-outside-1_463_3925)"/>
<path d="M119.68 81.7453C128.862 81.8392 136.243 88.9556 136.144 97.6704C136.044 106.385 128.502 113.349 119.32 113.255C110.138 113.161 102.757 106.045 102.856 97.3299C102.956 88.6152 110.498 81.6514 119.68 81.7453ZM119.653 84.0899C111.807 84.0097 105.397 89.961 105.312 97.3551C105.228 104.749 111.5 110.83 119.347 110.91C127.193 110.991 133.603 105.039 133.688 97.6453C133.772 90.2512 127.5 84.1701 119.653 84.0899ZM119.58 90.4948C120.249 90.5016 120.802 91.025 120.794 91.6801L120.741 96.3409L125.68 96.3914C126.349 96.3984 126.902 96.9208 126.894 97.5758C126.887 98.2307 126.322 98.7417 125.653 98.735L120.714 98.6845L120.661 103.345C120.653 104 120.089 104.512 119.42 104.506C118.751 104.499 118.198 103.975 118.206 103.32L118.259 98.6594L113.32 98.6089C112.652 98.6019 112.098 98.0795 112.106 97.4245C112.113 96.7696 112.678 96.2587 113.347 96.2653L118.286 96.3158L118.339 91.655C118.347 90.9999 118.912 90.4879 119.58 90.4948Z" fill="#AEABAB" stroke="#AEABAB" stroke-width="0.4"/>
</svg>
